<svg width="115" height="48" viewBox="0 0 115 48" fill="none" xmlns="http://www.w3.org/2000/svg">
<path d="M6.88618 21.8156C12.0611 20.0319 12.9419 15.3856 12.2813 11.1135C12.2813 10.9594 12.4134 10.8493 12.5455 10.8933C17.5002 13.3156 23.0715 18.6006 23.0715 26.5281C23.0715 32.6058 18.359 37.9789 11.5105 37.9789C9.06681 38.09 6.65566 37.3841 4.65766 35.9727C2.65965 34.5613 1.18858 32.5247 0.476626 30.1843C-0.235328 27.8439 -0.147617 25.3331 0.725916 23.0482C1.59945 20.7632 3.20905 18.8342 5.30068 17.5656C5.43281 17.4775 5.60897 17.5656 5.60897 17.7198C5.67504 18.5345 5.89524 20.5825 6.7981 21.8156H6.88618Z" fill="url(#paint0_radial_1374_5413)"/>
<path d="M37.6497 33.1562L38.0241 32.7158L39.1912 36.4153L39.037 36.5694C38.1562 37.3842 36.8349 37.8026 35.1393 37.8026H35.0733C33.5318 37.8026 32.3207 37.3622 31.4839 36.5474C30.6471 35.7106 30.2067 34.4554 30.2067 32.8699V22.7844H27.2339V18.7106H30.2067V13.7999H34.787V18.7106H38.4204V22.7844H34.765V31.879C34.765 32.2974 34.8751 33.6407 36.1523 33.6407C36.8129 33.6407 37.4295 33.3984 37.6497 33.1342V33.1562ZM40.072 37.3842V18.7326H44.6523V37.3842H40.072ZM42.3401 11.1134C42.8836 11.1134 43.4149 11.2743 43.8671 11.5758C44.3193 11.8773 44.6721 12.3059 44.881 12.8076C45.09 13.3093 45.1458 13.8616 45.0413 14.395C44.9369 14.9283 44.6769 15.4188 44.2942 15.8046C43.9114 16.1904 43.423 16.4543 42.8905 16.563C42.358 16.6717 41.8053 16.6203 41.3019 16.4153C40.7986 16.2104 40.3672 15.861 40.0621 15.4112C39.757 14.9615 39.5919 14.4315 39.5875 13.888C39.5875 12.3906 40.8427 11.1134 42.3401 11.1134ZM56.9619 18.2702C60.9257 18.2702 63.1057 20.4282 63.1057 24.3699V37.3622H58.5254V25.4709C58.4373 23.357 57.4244 22.388 55.2663 22.388C53.3285 22.388 51.765 23.5772 50.9723 24.5901V37.3622H46.392V18.7546H50.9723V20.7365C52.2935 19.4593 54.4075 18.3142 56.9619 18.3142V18.2702ZM78.3441 20.6704V11.9062H82.9244V37.4062H78.3441V35.4684C77.6432 36.2076 76.8 36.7974 75.8653 37.2024C74.9306 37.6073 73.9236 37.8189 72.905 37.8246C67.9062 37.8246 64.5591 33.9049 64.5591 28.0694C64.5591 22.2119 67.9062 18.2922 72.905 18.2922C73.9258 18.2968 74.9349 18.5102 75.8703 18.9192C76.8057 19.3282 77.6475 19.9241 78.3441 20.6704ZM78.3441 24.6121C77.8336 23.9473 77.1813 23.4047 76.4347 23.0237C75.6881 22.6428 74.8659 22.4332 74.028 22.4101C71.1873 22.4101 69.2935 24.6782 69.2935 28.0694C69.2935 31.4386 71.1873 33.7067 74.028 33.7067C75.6796 33.7067 77.4853 32.8259 78.3441 31.5487V24.6121ZM93.6265 18.2922C99.0436 18.2922 102.809 22.4761 102.809 28.4217V29.6769H88.9581C89.4205 32.2974 91.4905 33.971 94.3091 33.971C96.0928 33.971 98.0527 33.2002 99.1757 32.0772L99.484 31.8129L101.664 34.9399L101.444 35.1381C99.3804 36.9676 96.6905 37.93 93.9348 37.8246C88.2094 37.8246 84.1796 33.7948 84.1796 28.0474C84.1351 26.7785 84.3474 25.5136 84.8039 24.3288C85.2603 23.144 85.9514 22.0636 86.8358 21.1525C87.7201 20.2414 88.7795 19.5184 89.9502 19.0269C91.1209 18.5354 92.3788 18.2855 93.6485 18.2922H93.6265ZM88.9361 26.2197H98.3389C98.0747 23.423 95.7625 22.1458 93.6265 22.1458C90.4115 22.1458 89.2003 24.5681 88.9361 26.2417V26.2197ZM113.886 18.2922H114.216V22.9165L113.82 22.8505C113.489 22.7844 113.071 22.7404 112.652 22.7404C111.177 22.7404 109.129 23.7753 108.358 24.8764V37.3622H103.778V18.7326H108.38V20.8025C109.9 19.217 111.904 18.2922 113.886 18.2922Z" fill="#424242"/>
<defs>
<radialGradient id="paint0_radial_1374_5413" cx="0" cy="0" r="1" gradientUnits="userSpaceOnUse" gradientTransform="translate(11.5357 37.9902) scale(23.0715 27.1067)">
<stop stop-color="#FF7854"/>
<stop offset="1" stop-color="#FD267D"/>
</radialGradient>
</defs>
</svg>
